<svg width="24" height="24" viewBox="0 0 24 24" fill="none" xmlns="http://www.w3.org/2000/svg">
<path fill-rule="evenodd" clip-rule="evenodd" d="M5.53846 24V16.3846C5.53846 14.9834 6.67569 13.8462 8.07692 13.8462H15.9231C17.3243 13.8462 18.4615 14.9834 18.4615 16.3846V24H5.53846ZM3.69231 23.9068C2.81262 23.7268 1.99662 23.2929 1.35138 22.6486C0.486462 21.7828 0 20.6086 0 19.3846C0 15.2871 0 8.71292 0 4.61538C0 3.39138 0.486462 2.21723 1.35138 1.35138C2.21723 0.486462 3.39138 0 4.61538 0H6.46154V4.692C6.46154 6.72369 7.95046 8.30769 9.69231 8.30769H14.3077C16.0495 8.30769 17.5385 6.72369 17.5385 4.692V0H17.7425C17.964 0 18.1782 0.0803076 18.3462 0.225231L23.6806 4.84062C23.8837 5.016 24 5.27077 24 5.53846C24 5.53846 24 14.2394 24 19.3846C24 20.6086 23.5135 21.7828 22.6486 22.6486C22.0034 23.2929 21.1874 23.7268 20.3077 23.9068V16.3846C20.3077 13.9643 18.3434 12 15.9231 12H8.07692C5.65662 12 3.69231 13.9643 3.69231 16.3846V23.9068ZM15.6923 0V4.692C15.6923 5.63354 15.1145 6.46154 14.3077 6.46154H9.69231C8.88554 6.46154 8.30769 5.63354 8.30769 4.692V0H15.6923Z" fill="#800000"/>
</svg>
