<svg width="24" height="24" viewBox="0 0 24 24" fill="none" xmlns="http://www.w3.org/2000/svg">
<path d="M2.5 6.5L2.528 5.5C2.53184 5.24077 2.63464 4.99281 2.81534 4.8069C2.99604 4.62099 3.24098 4.5112 3.5 4.5H4.444C4.71378 4.50248 4.97262 4.60698 5.16851 4.79248C5.36441 4.97799 5.48283 5.23076 5.5 5.5V6.5" stroke="#800000" stroke-linecap="round" stroke-linejoin="round"/>
<path d="M20.13 6.5C19.9397 6.49998 19.7534 6.44567 19.593 6.34347C19.4325 6.24127 19.3045 6.0954 19.224 5.923C18.682 4.762 18.1 3.5 17 3.5H12C11.069 3.5 10.6 4.334 9.3 6.092C9.20769 6.21767 9.08728 6.32001 8.94837 6.39085C8.80947 6.46169 8.65592 6.49907 8.5 6.5H2.5C1 6.5 0.5 7.179 0.5 8.223V18.611C0.5 19.654 1 20.5 2.556 20.5H21.444C23 20.5 23.5 19.654 23.5 18.611V8.223C23.5 7.179 23 6.5 21.444 6.5H20.13Z" stroke="#800000" stroke-linecap="round" stroke-linejoin="round"/>
<path d="M14.5 18.5C17.5376 18.5 20 16.0376 20 13C20 9.96243 17.5376 7.5 14.5 7.5C11.4624 7.5 9 9.96243 9 13C9 16.0376 11.4624 18.5 14.5 18.5Z" stroke="#800000" stroke-linecap="round" stroke-linejoin="round"/>
<path d="M14.5 16C16.1569 16 17.5 14.6569 17.5 13C17.5 11.3431 16.1569 10 14.5 10C12.8431 10 11.5 11.3431 11.5 13C11.5 14.6569 12.8431 16 14.5 16Z" stroke="#800000" stroke-linecap="round" stroke-linejoin="round"/>
<path d="M4 11.5C4.82843 11.5 5.5 10.8284 5.5 10C5.5 9.17157 4.82843 8.5 4 8.5C3.17157 8.5 2.5 9.17157 2.5 10C2.5 10.8284 3.17157 11.5 4 11.5Z" stroke="#800000" stroke-linecap="round" stroke-linejoin="round"/>
</svg>
