<svg width="24" height="28" viewBox="0 0 24 28" fill="none" xmlns="http://www.w3.org/2000/svg">
<path d="M18.8571 10.2857C21.6975 10.2857 24 7.98317 24 5.14286C24 2.30254 21.6975 0 18.8571 0C16.0168 0 13.7143 2.30254 13.7143 5.14286C13.7143 5.52636 13.7563 5.90004 13.8359 6.25959L8.34619 9.69063C7.46741 8.99011 6.35403 8.57143 5.14286 8.57143C2.30254 8.57143 0 10.874 0 13.7143C0 16.5546 2.30254 18.8571 5.14286 18.8571C6.35403 18.8571 7.46741 18.4385 8.34619 17.7379L13.8359 21.169C13.7563 21.5285 13.7143 21.9022 13.7143 22.2857C13.7143 25.1261 16.0168 27.4286 18.8571 27.4286C21.6975 27.4286 24 25.1261 24 22.2857C24 19.4453 21.6975 17.1429 18.8571 17.1429C17.646 17.1429 16.5326 17.5615 15.6538 18.2621L10.1641 14.831C10.2437 14.4715 10.2857 14.0978 10.2857 13.7143C10.2857 13.3308 10.2437 12.9571 10.1641 12.5975L15.6538 9.16651C16.5326 9.86703 17.646 10.2857 18.8571 10.2857Z" fill="#800000"/>
</svg>
