<svg width="24" height="24" viewBox="0 0 24 24" fill="none" xmlns="http://www.w3.org/2000/svg">
<g clip-path="url(#clip0_21_751)">
<path d="M18.5 7.50005C18.775 7.50005 18.841 7.34105 18.646 7.14605L12.354 0.854047C12.3076 0.807484 12.2524 0.770541 12.1916 0.745335C12.1309 0.720128 12.0658 0.707153 12 0.707153C11.9342 0.707153 11.8691 0.720128 11.8084 0.745335C11.7476 0.770541 11.6925 0.807484 11.646 0.854047L5.35401 7.14705C5.15401 7.34205 5.22501 7.50105 5.50001 7.50105H8.50001V17.501C8.50001 17.7663 8.60536 18.0206 8.7929 18.2082C8.98044 18.3957 9.23479 18.501 9.50001 18.501H14.5C14.7652 18.501 15.0196 18.3957 15.2071 18.2082C15.3946 18.0206 15.5 17.7663 15.5 17.501V7.50005H18.5Z" stroke="#800000" stroke-linecap="round" stroke-linejoin="round"/>
<path d="M23.5 18.5V22.5C23.5 22.7652 23.3946 23.0196 23.2071 23.2071C23.0196 23.3946 22.7652 23.5 22.5 23.5H1.5C1.23478 23.5 0.98043 23.3946 0.792893 23.2071C0.605357 23.0196 0.5 22.7652 0.5 22.5V18.5" stroke="#800000" stroke-linecap="round" stroke-linejoin="round"/>
</g>
<defs>
<clipPath id="clip0_21_751">
<rect width="24" height="24" fill="white"/>
</clipPath>
</defs>
</svg>
